<?xml version="1.0" encoding="utf-8"?>
<!-- Generator: Adobe Illustrator 22.1.0, SVG Export Plug-In . SVG Version: 6.00 Build 0)  -->
<svg version="1.1" id="Calque_1" xmlns="http://www.w3.org/2000/svg" xmlns:xlink="http://www.w3.org/1999/xlink" x="0px" y="0px"
	 viewBox="0 0 851 722.1" style="enable-background:new 0 0 851 722.1;" xml:space="preserve">
<style type="text/css">
	.st0{display:none;}
	.st2{stroke:#B11E2A;}
	.st3{display:inline;stroke:#B11E2A;}
	.st1{stroke:#FDFCFC;}

</style>
<g fill="none" stroke-width="5">
	<rect x="-95" y="-56" class="st0" width="1054" height="826"/>



	<g>
		<path class="st2"  data-duration='130' d="M105.7,561.1c1.4,2.9,0.6,5.9,0.2,8.8c-0.4,2.4,0.3,3.8,2.9,4.1c2.8,0.4,5.5,1.1,6.9,4
			c4.4,11.4,9.6,22.1,19.5,29.8c11.5,9,23.2,18,32.3,29.4c5.8,7.3,13,11.9,20.5,16.5c5.2,3.1,9.3,7.5,13.3,12
			c3.5,3.9,2.7,6.1-2.5,6.8c-7.2,0.9-13.9-1.2-20.6-3.8c-11-4.2-18.5-13.2-28.1-19.2c-5-3.2-9.4-6.1-12-11.7c-1.6-3.4-5-5.4-8.8-5.8
			c-5-0.5-7.5-3.5-9.1-7.9c-1.8-5.2-4.6-9.6-9.2-13.2c-5.5-4.4-8.7-10.8-12.1-16.9c-4.5-8.2-10.5-14.9-18.3-19.8
			c-5.5-3.5-8.2-8.5-8.4-14.8c-0.1-2.5-0.4-4.4-2.5-6c-3.1-2.4-4.1-5.2-3.2-9.5c1.6-7.4-2.1-13.6-7.1-18.8
			c-7.2-7.5-13.4-15.5-18-24.8c-2.3-4.5-1.1-9.1-1.3-13.7c-0.1-2.3-0.3-4.4-1.6-6.6c-2.4-4.1-4-8.4-2.7-13.7
			c1.1-4.6-0.3-9.1-4.9-12.1c-4.1-2.7-4.9-6.8-4.2-11.7c0.7-4.9,0.3-10,0.4-15c0-2-0.1-4.2,1.4-5.6c6.3-5.8,3.7-12.1,0.9-18.2
			c-3.2-7-7-13.6-5.5-22.1c1.8-9.7-1-18.9-4.9-28c-3.6-8.3-5-17-2.2-26.2c2.4-8,3.9-16.2,2.5-25c-1.4-8.8,1.5-17.4,5.8-25.3
			c1.3-2.4,1.6-4.9,2-7.6c1.2-9.4,3.6-18.5,9.5-26.3c5.6-7.5,8.2-16.6,11.4-25.3c3.6-9.8,7.3-19.5,12.2-28.7
			c2.9-5.5,7.1-9.8,12-13.6c6.4-5,9.8-12.4,13.7-19.3c8.8-15.7,18.3-31,30.8-44c12.8-13.3,27.3-24.6,42.4-35
			c5.6-3.9,10.7-8.5,16.6-11.9c13.8-7.8,26.6-17.2,40.8-24.2c19.5-9.7,38.8-20.1,59.7-26.5c18.8-5.8,38.2-9.6,57.9-11.7
			c18.7-2,37.4-3.2,56.3-2.7c29,0.7,57.5,5.1,85.8,11.1c25.6,5.4,49.4,16,74,24.3c15.8,5.3,30.8,12.1,45.7,19.3
			c3.3,1.6,6,3.9,8.6,6.5c7,7.3,14.9,13.7,21.4,21.5c-6.6,0.8-13.6,0.3-19.6,2.6c-10.4,4-19.7,10.1-27.4,18.4
			c-4.7,5.1-9.8,9.7-14.7,14.6c-2.6-1.9-5.6-3.3-7.5-5.7c-2.5-3.2-5.7-4.9-9.2-5.3c-5.3-0.6-9.2-3.4-13.1-6.6
			c-2.2-1.8-4.2-3.7-6.3-5.5c-12.8-11.1-28.4-15.8-44.5-19.4c-2.3-0.5-4.5-1.1-6.5-2.3c-8.6-5-17.7-7.4-27.6-5.2
			c-1.1-0.2-1.7-1-2.1-1.9c-3-6.6-6.9-12.8-11.4-18.5c-3.7-4.7-8.5-6.6-13.9-5.8c-11.1,1.6-20.8,5.8-25.9,16.8
			c-0.4,0.9-1,1.2-1.9,1.4c-3.4-2.5-7.1-0.8-10.7-0.6c-10.8,0.6-21.7,0.5-32.4,1.5c-23.3,2.2-46.4,5.7-69.1,11.7
			c-12.7,3.4-25.2,7.6-36.5,14c-14.7,8.3-28.2,18.5-42.7,27.2c-9.7,5.8-19.1,12.1-28.6,18.1c-10.2,6.5-19.7,14.1-23.8,25.9
			c-1.9,5.5-4.8,9.1-9.9,11.6c-4.6,2.3-9.5,4.5-12.4,8.9c-2.9,4.5-6.2,8.5-10.2,12c-3.8,3.3-6,7.6-8.3,12.2
			c-5,10.4-8.2,21.4-15.3,31c-11.5,15.6-19.3,33.2-23.3,52.3c-2.8,13.2-5.4,26.5-11.7,38.4c-2.9,5.4-3.1,10.2-2.8,15.9
			c0.7,12.4,1.8,24.8-1.9,37.1c-1.9,6.2-3.3,12.8-1.6,19.6c1.4,5.3,2.5,10.6-0.5,15.8c-0.9,1.5-0.2,3.2,0.1,4.9
			c0.9,4.8,3.9,8.8,5,13.5c4.4,18.9,7.8,38,10.5,57.2c0.5,3.4,0.2,7.1,2.2,10.1c6.6,10.2,14.5,19.4,17,32.1
			C89.7,542.9,98.5,551.6,105.7,561.1z"/>
		<path class="st2" data-duration='130' d="M720.6,409.2c1.8-3.9,5.9-4.7,9.3-5.7c6.6-1.9,12.2-5.5,17.9-9c7.8-4.9,14.8-10.9,22.3-16.1
			c0.4,32-3.5,63.7-9.3,95.1c-1.2,6.6-4.2,12.6-8.4,17.9c-4.2,5.2-6.1,11.1-6.5,17.8c-0.7,9.7-6.1,17.8-10.7,26
			c-3,5.5-6,11.1-10.6,15.6c-1.4,1.4-2.2,3.2-2.3,4.9c-0.9,10.9-7.2,19.1-13.2,27.4c-6.6,9.3-14,18.1-23.1,25.2
			c-5,3.9-8,9.8-10.7,15.5c-1,2.2-2.1,3.4-4.1,4.3c-7.8,3.6-15.5,7.4-22.4,12.8c-3.2,2.5-5.2,5.1-6.4,8.9
			c-1.6,5.2-3.9,9.9-10.3,10.8c-1.3,0.2-2.6,1.5-3.6,2.6c-5.8,7-14.1,9.5-22.1,12.6c-1.7,0.7-3.5,0.8-3.5,3.3c0,1.9-1.9,2.7-3.2,3.6
			c-4,2.8-7.9,5.5-10.7,9.6c-0.4,0.6-1.2,1.4-1.9,1.4c-6.7,0.5-11.8,4.2-16.8,8c-1,0.8-2.3,1.5-3.7,1.3c-9-1.2-16.4,2.9-22.7,8.3
			c-4.5,3.9-9.4,5.2-14.9,5.6c-5.8,0.5-11.4,2.2-16.8,4.3c-1.5,0.6-2.9,1-4.4,0.7c-9-1.7-17.9,0.1-26.8,0.1c-2.8,0-5.7-0.5-6.7-3.2
			c-1.1-2.9,0.1-5.5,2.4-8c6.7-7.5,16.1-8.4,24.6-11.8c8.1-3.3,17.1-2.4,25-6c1.8-0.8,3.3-1.8,4.9-3.1c6.9-6,13.9-11.8,23.8-12
			c5-0.1,8.9-2.1,11.7-7c6.3-11,16.5-17.9,27.3-24c7.8-4.5,14.1-10.9,20.9-16.7c8.2-6.9,15.6-14.8,23.3-22.3
			c0.8-0.8,1.9-1.4,2.1-2.7c1-0.6,1.9-1.6,3-1.8c9.9-1.5,18.7-6.4,28-9.8c8.2-3,15.2-7.4,21.2-13.5c7.8-7.8,13.9-16.9,20.1-26
			c8.6-12.8,11.6-26.7,10.2-41.7c-1.3-13.7-3.6-27-13.2-37.8c-1-1.1-1.1-2.3-1.1-3.7c1.8-7.8,1.9-15.9,4.6-23.7
			C717.5,435,720,422.2,720.6,409.2z"/>
		<path class="st2" d="M768,330.8c-3.5,0.1-6.9,0.5-10.4,0.3c-8.3-0.4-15.5,2.3-22.4,6.7c-4.8,3.1-10,5.7-15.2,8
			c-1.1-9.4-3.8-18.5-7.2-27.3c-0.6-1.5-1.9-3.4-1.5-4.7c1.7-5.6-1.3-10-3.3-14.7c-3.6-8.2-6.5-16.5-7.2-25.7
			c-1.1-14.4-6.9-27.1-16.6-37.9c-1.9-2.1-3.1-4.7-4.2-7.3c-2.8-6.8-4-14.7-10-19.7c-10.1-8.5-17.1-19.7-25.9-29.3
			c-10.1-11-18.5-23.5-28.9-34.2c4.6-4,9.3-5.9,15.8-4.3c11.1,2.8,22.6,3.7,34.2,3.5c8.8-0.2,9.3-0.7,9.7-9.2c0-0.7,0.2-1.3,0.4-2
			c13.2,12.9,24.9,27.1,35,42.6c10.3,15.8,19,32.5,26.4,49.9c3.1,7.5,2.8,15.6,5.1,23.2c2.4,7.6,4.2,16.2,10.2,21.2
			c10.3,8.6,9,20.3,10.8,31.2C764.5,310.9,766.2,320.9,768,330.8z"/>
	</g>

	<path id="P"  data-async="" data-delay="15000" class="st1" d="M350.2,178.8c-16-39.6-50.1-59.3-87.9-56.3c-33.1,2.6-61,17.3-85,39.8c-7.7,7.3-13.6,16.3-20.1,24.6
		c-7.8,10-12.3,21.9-17.1,33.6c-0.6,1.5-0.7,3.3-2.4,4.2c-5.5,2.9-7.8,7.9-9.1,13.6c-3.4,15.3-5,31-5.6,46.6
		c-0.8,23.5-3.6,46.8-4.3,70.3c0,0.3-0.4,0.7-0.6,1c-1-1.4-2-2.7-3.3-4.5c-1.1,13.5-0.8,26.2-3.1,38.7c-1.3,7-4.3,13.5-4.2,20.9
		c0.8,38.7,0,77.3-0.9,116c-0.4,11.3,0.1,22.6-1.3,33.8c1.4,2.9,0.6,5.9,0.2,8.8c-0.4,2.4,0.3,3.8,2.9,4.1c2.8,0.4,5.5,1.1,6.9,4
		c2.6-0.1,4.6,1.3,6.7,2.7c7.2,5,14.4,9.9,23.9,8.5c3.8-0.6,7.5-1.4,10.9-3.3c3.4-1.9,6.3-4.3,8.5-7.5c2.2-3.3,4.7-6.5,5.2-10.7
		c0.3-2.7-0.3-5.6,0.9-8.6c0-2.1,0.3-4.1,0.7-6.1c0-3.5,0.5-6.8,1.5-10c-0.1-0.7-0.1-1.4-0.2-2.2c-0.1-2.5,0.1-5,0.6-7.4
		c0-0.2-0.1-0.3-0.1-0.5c-0.3,1.2-0.6,2.4-0.9,3.6c0-11.7-0.2-24.1,0.1-36.4c0.5-20.6,0.4-41.3,3.4-61.8c1.5-9.8,1.6-10,11.3-8.1
		c14.2,2.7,28.4,5.2,41.8,3.5c-0.1,0.1-0.2,0.2-0.3,0.3c1.5-0.3,3-0.5,4.5-0.5c2.8-1.3,5.8-2.2,8.8-2.8c0.2-0.3,0.5-0.6,0.7-0.7
		c1.9-1,3.8-2.1,5.8-2.8c16.1-5.9,29.9-15.7,42.7-26.8c12.9-11.2,22.4-25.2,30.7-40.1c9-16.3,17.6-32.7,24.7-49.8
		c9.2-22.4,11.5-46.4,12-70.5C360,219.1,358.2,198.5,350.2,178.8z M278.5,303.1c-9.2,14.6-20.8,27.3-32.7,39.9
		c-8.1,8.5-18.1,13.9-27.4,20.5c-1.9,1.4-4.3,1.6-6.7,1.9c-6.8,1.1-13.6,1.4-20.4,1.7c-3.8,0.2-5.3-1.3-4.8-5.5
		c2.9-24.3,5.8-48.6,7.7-73c0.4-5.6,0.9-11.3,0.5-17c-0.7-9.1,2.5-16.9,6.5-24.7c4.2-8.2,10.6-14.8,16.1-22.1
		c4.6-6.1,9.3-11.9,16.1-15.3c11.6-5.9,23.1-12.8,37.1-10.6c8.4,1.4,14.2,6.3,17.3,14c4.2,10.4,3.8,21.5,4.7,30
		C293.1,265.8,289.6,285.5,278.5,303.1z"
		style="stroke-dasharray: 186, 226; stroke-dashoffset: 0;"
		/>

		<g id="IS">
			<path class="st1"  d="M467.8,219c1.6,16.5-2.3,32.8-1,49.4c1.7,22.8,3.9,45.5,6.7,68.1c2.4,18.5,4.5,37,8.2,55.3
				c2.5,12.2-0.6,23.8-10.3,32.3c-4.9,4.3-11.1,7.3-17.6,8.7c-1.8,0.4-2.9,0.8-3.7,2.6c-3.7,8.6-10.9,13.3-19.2,16.9
				c-7.9,3.5-16.2,6.2-23.3,11.2c-6.9,4.8-7.2,9.9-3,17c8.2,13.8,15.6,28.1,23.3,42.2c5.5,10,8.1,20.7,8.2,32
				c0,8.9-2.1,16.9-8.8,23.5c-6.1,6-12.3,11.9-19.6,16.1c-17,9.8-35,11.4-53.7,4.6c-5.9-2.1-10.2-5.3-13-10.7
				c-4.1-8.2-1.8-15.1,6.5-19c7.3-3.5,15.3-4.6,23.3-4.8c8-0.2,15.5-1.5,21.5-7.5c4.1-4.1,5.9-8.3,3.9-14.3
				c-3.1-9.4-7.3-18.1-12.8-26.3c-7.2-10.8-14.9-21.3-18.9-33.9c-2.7-8.4-5.4-16.9-4.6-25.8c0.8-9.4,4.2-17,13.5-21.5
				c16.9-8,33.7-16.4,50-25.6c1.9-1.1,3.5-1.6,2.5-4.7c-5.4-16.8-8.5-34.2-10.1-51.7c-3.2-36.7-2.6-73.6-3.2-110.4
				c-0.4-22.3-1.2-44.6-1.7-66.9c-0.2-9.8,2-19.1,6.8-27.8c4.5-8,12.5-12.5,20-11.1c12.1,2.3,19.3,9.1,21.2,18.8
				c1.8,9.3,3.3,18.6,6.7,27.5c2,5.2,1.5,10.9,1.9,16.3C468.2,206,467.8,212.6,467.8,219z"/>
			<path class="st1" d="M389.7,75c3.9-2.6,2.1-7.4,4.2-10.8c0.6-1,0.3-2.6,0.4-3.9c0.8-0.2,1.4-0.5,1.9-1.4
				c5.2-10.9,14.9-15.2,25.9-16.8c5.4-0.8,10.2,1.1,13.9,5.8c4.5,5.8,8.4,11.9,11.4,18.5c0.4,0.9,1,1.7,2.1,1.9
				c0.7,5.8,3.3,11,4.8,16.6c0.9,9.9-0.5,19.2-6.7,27.4c-2.4,3.1-5.4,5.3-9.4,4.6c-14.1-2.3-27.3-6.9-38.6-15.9
				c-6.7-5.4-9.4-12.7-8.9-21.2C390.8,78.3,391,76.5,389.7,75z"/>
		</g>

	<path id="C" data-duration='130' class="st1" d="M564.1,118.5c4.9-4.8,10-9.5,14.7-14.6c7.7-8.4,17.1-14.4,27.4-18.4c6-2.3,13.1-1.9,19.6-2.6
		c8.6,0.3,17.1-0.6,25.6,1.9c7.5,2.2,14.2,5.9,21.4,8.7c2.5,1,2,3.9,2.1,6.2c0,9.6,0,19.2,0,28.9c0,1.5,0.2,3,0.4,4.4
		c-0.1,0.7-0.3,1.3-0.4,2c-0.4,8.6-0.9,9-9.7,9.2c-11.5,0.3-23-0.7-34.2-3.5c-6.6-1.6-11.3,0.3-15.8,4.3c-5.3,3.7-9.9,8.1-12.9,14
		c-2.1,1.5-3.3,3.7-4.7,5.8c-8.5,12.7-16.5,25.6-23.6,39.1c-5.5,10.5-9.9,21.4-14.1,32.4c-6.1,16.1-5.1,32.9-5.3,49.8
		c-0.3,24.7,11.6,43.4,27.4,60.5c5.3,5.8,12.6,8.5,19.1,12.3c6.1,3.6,12.8,5.7,19.8,6.3c22.5,1.7,44.5-1.1,66.1-7.5
		c8.2-2.4,17-3.5,24.2-8.5c3.3,0,5.9-1.9,8.7-3.3c5.3-2.3,10.4-4.9,15.2-8c6.8-4.4,14.1-7.1,22.4-6.7c3.5,0.2,6.9-0.2,10.4-0.3
		c7,0.8,9.1,3,10.9,9.4c4,14.4,1.5,27.1-8.8,38.1c-7.5,5.2-14.5,11.2-22.3,16.1c-5.7,3.6-11.3,7.1-17.9,9c-3.3,0.9-7.4,1.8-9.3,5.7
		c-1.5-0.7-3-0.4-4.4,0.2c-11.1,4.3-22.7,7.1-34.3,9.4c-33.1,5-65.8,2.7-98-5.7c-19.5-5.1-37.7-13.2-50.3-30.1
		c-10.4-13.9-16.7-29.8-20.4-46.7c-9.3-42.4-7.7-84.4,5.2-125.8c3-9.8,7.4-19.2,10.7-28.9c6.6-19.1,18.2-35.3,27.9-52.6
		C559.3,125.5,561.7,122,564.1,118.5z"/>
	<path id="a"  data-duration='130' class="st1" d="M333,600.7c-8.3-23.4-17.6-46.5-21.4-71.4c-3.2-21.7-8.1-43.2-9.5-65.2c-0.5-7.8-2.9-12.3-11.1-14.9
		c-17-5.3-33.3-12.9-50.9-16.9c0.1-0.1,0.2-0.3,0.3-0.4c-1.9,0-3.7-0.2-5.5-0.4c-0.8,0.1-1.5,0.2-2.3,0.3c-2,1.3-4.1,2.4-6.4,3.3
		c0.4,0,0.7-0.1,1.1-0.1c-27.6,24.5-44.1,56-53.6,90.8c-0.3,2.7-1,5.2-2,7.7c-0.1,0.3-0.2,0.7-0.2,1c0.1,3.6-0.3,7.3-1.3,10.9
		c-0.1,0.2-0.2,0.5-0.3,0.7c-0.1,1.3-0.2,2.5-0.4,3.7c0.2,1.3,0.3,2.7,0.4,4c0.1,1.8,0,3.5-0.2,5.2c0.2-0.4,0.5-0.9,0.8-1.3
		c-0.1,2-0.2,3-0.3,3.9c-0.1,1,0.5,1.9,0.7,2.8c2.3,12.5,10.1,21.4,18.7,29.9c6.2,6.2,13.2,10.6,21.7,12.1
		c13.9,2.6,27.9,2.4,41.7-0.6c6.3-1.4,12.4-4.2,15.4-10c5.6-10.8,12.6-20.8,18.6-31.3c1.6-2.8,1.4-6.5,4.7-8.8
		c0.6,1.3,1.3,2.4,1.7,3.6c4.1,12.3,8,24.7,9.9,37.6c1,6.6,3.4,12.1,8.8,16.1c4.5,3.3,14.3,4.1,18.5,1.1
		C334.4,611.9,335.1,606.6,333,600.7z M275.4,511.9c-2.5,15.4-5.4,31-11.8,45.1c-8,17.8-26.8,31-48.6,20.5c-3-1.4-6.4-2-9.1-3.8
		c-12.4-8.2-15-13.1-13.7-29.1c-0.7-6.9,2.7-13.6,5.4-20.6c5.7-15.1,11.6-30,19-44.3c2.9-5.5,7.4-10.2,12.4-14.2
		c4.6-3.6,9.7-6.4,13.7-10.7c2.1-2.2,3.3-1.5,4.8,1c3.3,5.4,7.2,10.4,12.2,14.4c3,2.3,6,4.6,10,5.1c4.3,0.6,6.9,3.3,7.7,7.9
		C279.2,493,277,502.4,275.4,511.9z"/>
	<path id="S" data-duration='130' class="st1" d="M493.9,603.1c-11.4-1.5-23.3-5.7-32.2-15.9c-5.1-5.8-3.9-12.1,2.5-16.1c7.8-4.9,16.8-4.9,25.5-5.9
		c6.6-0.8,13.2-1.8,19.5-4.1c6.2-2.2,9.5-7.6,8.4-14.1c-0.8-4.6-2.2-9-4.7-13.1c-8.5-13.9-17.4-27.5-25.3-41.8
		c-8.2-14.6-7.9-30.6-5.1-46.6c0.6-3.1,2.6-4.9,4.8-6.7c8.2-7.1,18.3-10.7,27.7-15.6c8.8-4.6,17.7-9.2,26.4-14
		c10.7-5.9,18.5-3.9,24.9,6.4c7.6,12.3,5,23.1-6.9,31.5c-6.7,4.7-14.7,5.9-21.6,9.9c-4.4,2.5-8.4,5.4-11.9,8.9
		c-4.4,4.3-5.4,9.5-2.8,15.1c2.7,6,7.1,11.2,9.1,17.6c0.4,1.2,1.4,2.6,2.4,3.1c6.1,2.8,8.3,8.5,10.1,14.2c1.6,5.1,4,9.8,6,14.8
		c4.8,12.1,5.7,24.5,4.1,37.2c-0.3,2.2-1.1,4.3-2.6,5.8c-8.7,8.7-17.6,17.4-29,22.5C514.7,600,505.3,602.7,493.9,603.1z"/>
	<path id="O" data-duration='130' class="st1" d="M722.9,512.5c-1.3-13.7-3.6-27-13.2-37.8c-1-1.1-1.1-2.3-1.1-3.7c-0.8,0.3-1.7,0.4-2.3-0.3
		c-6.9-8.1-16.6-10.8-26.3-13.3c-0.9-0.2-1.5-0.5-2-0.8c-0.8,0-1.5,0-2.2-0.1c-0.4,1.3-1.9,0.3-2.7,0.2c-5.7-0.3-11.3-0.1-16.9,0.9
		c-16,2.9-28.4,12.3-40.5,22.2c-6.6,5.4-11.3,12.4-16.3,19.2c-12.9,17.5-21.4,36.5-20.1,58.6c1.1,18.6,10.4,32.5,27.1,41.1
		c5.3,2.1,10.8,3.6,16.4,5c5.9,1.4,11.8,0.2,17.6,1.5c1-0.6,1.9-1.6,3-1.8c9.9-1.5,18.7-6.4,28-9.8c8.2-3,15.2-7.4,21.2-13.5
		c7.8-7.8,13.9-16.9,20.1-26C721.3,541.5,724.3,527.5,722.9,512.5z M685.2,539c-2.6,13.2-13,21.3-24.1,27.9
		c-6.8,4.1-13.5,8.3-22.2,7.2c-3-0.4-5.9-1-8.8-1.7c-5-1.8-9.9-3.9-14-7.3c-5-4.1-6.8-9.3-5.5-15.6c2-9.5,6.6-17.7,13.4-24.5
		c2.1-2.1,3-4.7,4.6-7c9.1-12.6,22.4-18.2,36.5-22.7c2.3-0.7,4.9-0.6,5-4.3c0.1-1.7,2-0.9,3.2-0.2c5.5,4.9,11.8,8.7,13,17.4
		C687.8,518.7,687.1,529.1,685.2,539z"/>

	<g class="st0">
		<path class="st3" data-duration='130' d="M606.3,598.8c-8.5,5.1-14.7,12.7-22,19.2c-4.5,4-9.1,7.7-15.2,9.4c-3.9,1.1-5.7,4.7-5.1,9
			c0.6,4-1.1,5.1-5.1,4.9c-9.9-0.4-19.3,1.2-26.4,9.1c-0.3,0.4-1.1,0.5-1.2,0.8c-1.9,11.5-12.7,11.6-20.3,15.9
			c-6.6,3.7-15.3,2.9-20.4,9.6c-1.6,2-3.6,3.7-4.7,6.1c-1.4,3.1-3.8,4.5-7,4.5c0.2-0.2,0.3-0.3,0.5-0.3c-10,0-20,0-30,0
			c-1.4,0.6-2.8,1.2-4.2,1.7c-10.7,1.5-21.5,2.1-31.9,4.7c-9.5,2.4-19.7,3.1-28.2,9.1c-1.5,1-3.6,0.8-5.4,0.2
			c-7.6-2.7-15.7-3.5-23.5-5.2c-11.1-2.4-22.1-7.1-34-3.9c-2.6,0.7-5-1.2-6.9-3.2c-2.6-2.6-5.9-4.5-9.3-3.1
			c-9.2,3.7-16.7-0.2-24.2-4.5c-5.9-3.4-11.5-7.3-17.7-10.1c-16-7.2-30.2-17.5-46-24.9c-12.9-6.1-24.6-14.3-37.3-20.6
			c-1.8-0.9-3-2.2-3.2-4.5c-1.3-11.3-8.7-17.3-18.4-21.3c-5.7-2.4-10.5-5.9-13.1-11.9c3.8-0.6,7.5-1.4,10.9-3.3
			c3.4-1.9,6.3-4.3,8.5-7.5c2.2-3.3,4.7-6.5,5.2-10.7c0.4-3.5-0.7-7.2,2.4-11.2c-0.1,2-0.2,3-0.3,3.9c-0.1,1,0.5,1.9,0.7,2.8
			c2.3,12.5,10.1,21.4,18.7,29.9c6.2,6.2,13.2,10.6,21.7,12.1c13.9,2.6,27.9,2.4,41.7-0.6c6.3-1.4,12.4-4.2,15.4-10
			c5.6-10.8,12.6-20.8,18.6-31.3c1.6-2.8,1.4-6.5,4.7-8.8c0.6,1.3,1.3,2.4,1.7,3.6c4.1,12.3,8,24.7,9.9,37.6
			c1,6.6,3.4,12.1,8.8,16.1c4.5,3.3,14.3,4.1,18.5,1.1c3.6-2.6,4.3-7.9,2.2-13.8c-8.3-23.4-17.6-46.5-21.4-71.4
			c-3.2-21.7-8.1-43.2-9.5-65.2c-0.5-7.8-2.9-12.3-11.1-14.9c-17-5.3-33.3-12.9-50.9-16.9c0.4-0.4,0.7-0.9,1-1.1
			c1.9-1,3.8-2.1,5.8-2.8c16.1-5.9,29.9-15.7,42.7-26.8c12.9-11.2,22.4-25.2,30.7-40.1c9-16.3,17.6-32.7,24.7-49.8
			c9.2-22.4,11.5-46.4,12-70.5c0.4-20.9-1.4-41.5-9.4-61.2c-16-39.6-50.1-59.3-87.9-56.3c-33.1,2.6-61,17.3-85,39.8
			c-7.7,7.3-13.6,16.3-20.1,24.6c-7.8,10-12.3,21.9-17.1,33.6c-0.6,1.5-0.7,3.3-2.4,4.2c-5.5,2.9-7.8,7.9-9.1,13.6
			c-3.4,15.3-5,31-5.6,46.6c-0.8,23.5-3.6,46.8-4.3,70.3c0,0.3-0.4,0.7-0.6,1c-1-1.4-2-2.7-3.3-4.5c-1.1,13.5-0.8,26.2-3.1,38.7
			c-1.3,7-4.3,13.5-4.2,20.9c0.8,38.7,0,77.3-0.9,116c-3.3-2.3-5.5-5.5-7.1-9.1c-6.4-15-12.9-29.8-16.4-45.9
			c-3-13.9-6.7-27.5-7.7-41.7c-0.3-5.7,1.3-11.5-1.1-17.1c-0.2,0.3-0.3,0.7-0.5,1c-0.2-5.1-0.1-10.2-1.5-15.2
			c-0.1-4.9-0.3-9.8-0.4-14.7c-0.5-21.7-0.8-43.5,1.9-65.1c0.6-4.8,0-9.8,1.8-14.6c4.3-11.3,7.9-22.9,14.1-33.5
			c5.3-9,9.8-18.5,15.4-27.4c3.4-5.3,7.1-10.4,10.5-15.7c4.7-7.5,7.3-15.9,10-24.2c2.8-8.8,6.9-15.6,16.6-17.8
			c2.1-0.5,4.2-2.5,5.5-4.4c8.6-12.4,20.8-21,31.6-31.2c5.7-5.4,12.8-9.9,15.9-17.2c2.2-5.4,5.9-6.9,10.6-8.9
			c12.7-5.4,26.2-9.8,35.7-20.7c0.6-0.7,1.3-0.8,2.1-1.1c4.9-2.1,10.1-2.8,15.3-3.8c7.6-1.5,15.3-2.6,22.8-4.6
			c12.6-3.4,24.8-8,37.4-11.1c14.4-3.5,29-6.2,43.9-6.4c7.6-0.1,15.1-0.2,22.7-0.3c2.3,0,4.9-0.2,4.7,3.4
			c-0.5,8.5,2.2,15.9,8.9,21.3c11.2,9.1,24.5,13.6,38.6,15.9c4,0.7,7-1.5,9.4-4.6c6.1-8.2,7.6-17.5,6.7-27.4
			c6.8,2.6,13,6.6,20.9,6.3c2.3-0.1,5.7,1,7.4,4c3.2,5.7,8.7,8,14.7,9.7c12.6,3.6,25.8,5.3,37.5,11.9c7.3,4.1,15.6,6.6,22.3,12
			c-9.7,17.3-21.3,33.5-27.9,52.6c-3.3,9.7-7.7,19.1-10.7,28.9c-12.9,41.4-14.5,83.4-5.2,125.8c3.7,16.9,10.1,32.7,20.4,46.7
			c12.6,16.9,30.8,25,50.3,30.1c32.2,8.4,65,10.7,98,5.7c-0.5,2.5-2.6,3.7-4.3,5.3c-2.5,0.8-1.3,2.9-1.4,4.4
			c-0.2,9.1-0.3,18.1-0.3,27.2c-0.1,2.6-1.9,1.2-2.9,1.1c-5.7-0.3-11.3-0.1-16.9,0.9c-16,2.9-28.4,12.3-40.5,22.2
			c-6.6,5.4-11.3,12.4-16.3,19.2c-12.9,17.5-21.4,36.5-20.1,58.6C580.3,576.3,589.6,590.1,606.3,598.8z M467.8,219
			c0-6.5,0.3-13-0.1-19.5c-0.4-5.4,0.1-11.1-1.9-16.3c-3.4-8.9-4.9-18.3-6.7-27.5c-1.9-9.8-9.1-16.6-21.2-18.8
			c-7.5-1.4-15.5,3.1-20,11.1c-4.8,8.6-7,18-6.8,27.8c0.5,22.3,1.3,44.6,1.7,66.9c0.6,36.8,0,73.6,3.2,110.4
			c1.5,17.6,4.6,34.9,10.1,51.7c1,3.1-0.6,3.6-2.5,4.7c-16.3,9.2-33.1,17.6-50,25.6c-9.4,4.5-12.7,12.1-13.5,21.5
			c-0.8,9,1.9,17.5,4.6,25.8c4,12.5,11.7,23.1,18.9,33.9c5.5,8.2,9.6,16.9,12.8,26.3c2,6,0.1,10.2-3.9,14.3c-6,6-13.5,7.3-21.5,7.5
			c-8,0.2-16,1.3-23.3,4.8c-8.2,3.9-10.5,10.8-6.5,19c2.7,5.4,7.1,8.6,13,10.7c18.7,6.8,36.7,5.2,53.7-4.6
			c7.3-4.2,13.5-10.2,19.6-16.1c6.8-6.6,8.8-14.5,8.8-23.5c0-11.3-2.7-22-8.2-32c-7.7-14.1-15.1-28.4-23.3-42.2
			c-4.2-7.2-3.9-12.2,3-17c7.2-5,15.4-7.8,23.3-11.2c8.3-3.6,15.4-8.3,19.2-16.9c0.8-1.8,1.9-2.3,3.7-2.6c6.6-1.4,12.7-4.3,17.6-8.7
			c9.7-8.5,12.8-20.1,10.3-32.3c-3.7-18.3-5.9-36.8-8.2-55.3c-2.9-22.6-5-45.3-6.7-68.1C465.6,251.8,469.4,235.6,467.8,219z
			 M493.9,603.1c11.4-0.4,20.8-3.1,29.5-7c11.4-5,20.3-13.8,29-22.5c1.5-1.5,2.3-3.6,2.6-5.8c1.6-12.7,0.8-25.2-4.1-37.2
			c-2-4.9-4.5-9.6-6-14.8c-1.7-5.7-4-11.4-10.1-14.2c-1.1-0.5-2.1-1.9-2.4-3.1c-2-6.4-6.4-11.6-9.1-17.6c-2.6-5.6-1.6-10.8,2.8-15.1
			c3.6-3.5,7.5-6.4,11.9-8.9c6.9-4,14.9-5.2,21.6-9.9c11.8-8.3,14.5-19.1,6.9-31.5c-6.4-10.3-14.2-12.2-24.9-6.4
			c-8.7,4.8-17.6,9.4-26.4,14c-9.4,4.9-19.5,8.5-27.7,15.6c-2.1,1.9-4.2,3.6-4.8,6.7c-2.9,16.1-3.1,32,5.1,46.6
			c7.9,14.2,16.8,27.9,25.3,41.8c2.5,4.1,3.9,8.5,4.7,13.1c1.1,6.4-2.3,11.9-8.4,14.1c-6.3,2.2-12.9,3.3-19.5,4.1
			c-8.7,1-17.7,1.1-25.5,5.9c-6.5,4-7.6,10.3-2.5,16.1C470.6,597.4,482.5,601.5,493.9,603.1z"/>
		<path class="st3"  data-duration='130' d="M711.3,349c-7.3,5.1-16.1,6.1-24.2,8.5c-21.5,6.4-43.6,9.2-66.1,7.5c-7-0.5-13.6-2.7-19.8-6.3
			c-6.6-3.8-13.8-6.6-19.1-12.3c-15.8-17.1-27.6-35.8-27.4-60.5c0.2-16.8-0.8-33.7,5.3-49.8c4.2-11,8.6-21.8,14.1-32.4
			c7.1-13.6,15.1-26.5,23.6-39.1c1.4-2,2.5-4.3,4.7-5.8c9.8,8.4,19.3,17.2,28.2,26.6c14.3,15,25.7,32,36.4,49.5
			c6.1,10,11.7,20.6,12.5,32.6c0.3,5.3,2,8.7,5.7,12c7.7,6.8,7.7,16.7,0.4,24.2c-5,5.1-4.5,8.2,2.2,11.2
			c8.4,3.8,14.4,10.2,19.2,17.9C710.1,337.8,709.7,343.7,711.3,349z"/>
		<path class="st3" data-duration='130' d="M173.5,536.7c0-11.7-0.2-24.1,0.1-36.4c0.5-20.6,0.4-41.3,3.4-61.8c1.5-9.8,1.6-10,11.3-8.1
			c14.2,2.7,28.4,5.2,41.8,3.5C199.3,461.1,182.3,497.1,173.5,536.7z"/>
		<path class="st3"  data-duration='130' d="M194.9,543.4c-0.7-6.9,2.7-13.6,5.4-20.6c5.7-15.1,11.6-30,19-44.3c2.9-5.5,7.4-10.2,12.4-14.2
			c4.6-3.6,9.7-6.4,13.7-10.7c2.1-2.2,3.3-1.5,4.8,1c3.3,5.4,7.2,10.4,12.2,14.4c3,2.3,6,4.6,10,5.1c4.3,0.6,6.9,3.3,7.7,7.9
			c1.7,9.8-0.5,19.2-2.1,28.7c-2.5,15.4-5.4,31-11.8,45.1c-8,17.8-26.8,31-48.6,20.5c-3-1.4-6.4-2-9.1-3.8
			C196.3,564.3,193.6,559.4,194.9,543.4z"/>
		<path class="st3" data-duration='130' d="M292.6,242.9c0.5,22.9-3,42.6-14.1,60.2c-9.2,14.6-20.8,27.3-32.7,39.9c-8.1,8.5-18.1,13.9-27.4,20.5
			c-1.9,1.4-4.3,1.6-6.7,1.9c-6.8,1.1-13.6,1.4-20.4,1.7c-3.8,0.2-5.3-1.3-4.8-5.5c2.9-24.3,5.8-48.6,7.7-73
			c0.4-5.6,0.9-11.3,0.5-17c-0.7-9.1,2.5-16.9,6.5-24.7c4.2-8.2,10.6-14.8,16.1-22.1c4.6-6.1,9.3-11.9,16.1-15.3
			c11.6-5.9,23.1-12.8,37.1-10.6c8.4,1.4,14.2,6.3,17.3,14C292,223.3,291.6,234.4,292.6,242.9z"/>
		<path class="st3"  data-duration='130' d="M630.2,572.4c-5-1.8-9.9-3.9-14-7.3c-5-4.1-6.8-9.3-5.5-15.6c2-9.5,6.6-17.7,13.4-24.5c2.1-2.1,3-4.7,4.6-7
			c9.1-12.6,22.4-18.2,36.5-22.7c2.3-0.7,4.9-0.6,5-4.3c0.1-1.7,2-0.9,3.2-0.2c-1.1,4.1-2.4,8.2-3.4,12.4
			c-2.3,10.3-5.7,20.2-13,27.9c-5.1,5.3-7.5,11.7-10.6,17.9c-1.2,2.5-0.1,6.6-4,7.2c-7.7,1.2-9.6,6.7-10.7,13.1
			C631.5,570.4,630.7,571.4,630.2,572.4z"/>
		<path class="st3" data-duration='130' d="M386.5,75.3c-1.7,1.9-3.8,1-5.9,0.9C382.3,74.3,384.5,75.4,386.5,75.3z"/>
	</g>
</g>
</svg>
